<svg width="77" height="73" viewBox="0 0 77 73" fill="none" xmlns="http://www.w3.org/2000/svg">
<path d="M38.3971 42.5164C37.6545 42.5178 36.9348 42.2703 36.3629 41.8168L17.2927 26.6085C16.6436 26.0922 16.2355 25.3503 16.158 24.546C16.0805 23.7417 16.34 22.9409 16.8795 22.3197C17.419 21.6986 18.1943 21.3079 19.0347 21.2338C19.8752 21.1596 20.712 21.408 21.361 21.9243L38.3971 35.551L55.4332 22.411C55.7583 22.1583 56.1324 21.9696 56.5339 21.8558C56.9355 21.7419 57.3566 21.7051 57.773 21.7475C58.1895 21.7899 58.5931 21.9107 58.9606 22.1028C59.3282 22.295 59.6524 22.5548 59.9147 22.8672C60.2057 23.18 60.4262 23.5469 60.5622 23.945C60.6982 24.343 60.7469 24.7637 60.7051 25.1806C60.6633 25.5975 60.532 26.0016 60.3194 26.3677C60.1069 26.7338 59.8176 27.0539 59.4697 27.3081L40.3995 41.9993C39.8112 42.3811 39.1062 42.5631 38.3971 42.5164V42.5164Z" fill="white"/>
</svg>
